<svg viewBox="0 0 24 24" xmlns="http://www.w3.org/2000/svg">
  <path d="M11.08 1.84v-.92a.92.92 0 0 1 1.84 0v.92a.92.92 0 0 1-1.84 0Zm9.23 3.69a.92.92 0 0 0 .65-.27l.92-.92a.92.92 0 0 0-1.3-1.3l-.92.92a.92.92 0 0 0 .65 1.57Zm-17.27-.27a.92.92 0 1 0 1.3-1.3l-.92-.92a.92.92 0 1 0-1.3 1.3l.92.92Zm10.03 3.05a.92.92 0 0 0-.3 1.81A4.68 4.68 0 0 1 16.62 14a.92.92 0 1 0 1.84 0 6.54 6.54 0 0 0-5.39-5.69ZM24 20.31v2.77A1.85 1.85 0 0 1 22.15 24H1.85A1.85 1.85 0 0 1 0 23.08v-2.77a1.85 1.85 0 0 1 1.85-1.85V14a10.15 10.15 0 0 1 10.18-10.15A10.2 10.2 0 0 1 22.15 14.12v4.34A1.85 1.85 0 0 1 24 20.31Zm-20.31-1.85h16.62v-4.34a8.34 8.34 0 0 0-8.27-8.43H12A8.31 8.31 0 0 0 3.69 14v4.46Zm18.46 3.69v-1.84H1.85v1.84h20.3Z"/>
</svg>
