<svg viewBox="0 0 28 28" xmlns="http://www.w3.org/2000/svg" fill="none">
  <path d="M14 23.25V7.5C14 6.57174 14.3687 5.6815 15.0251 5.02513C15.6815 4.36875 16.5717 4 17.5 4H25.375V19.75H17.5C16.5717 19.75 15.6815 20.1187 15.0251 20.7751C14.3687 21.4315 14 22.3217 14 23.25Z" stroke="black" stroke-width="1.5" stroke-linecap="round" stroke-linejoin="round"/>
  <path d="M14 23.25C14 22.3217 13.6313 21.4315 12.9749 20.7751C12.3185 20.1187 11.4283 19.75 10.5 19.75H2.625V4H10.5C11.4283 4 12.3185 4.36875 12.9749 5.02513C13.6313 5.6815 14 6.57174 14 7.5V23.25Z" stroke="black" stroke-width="1.5" stroke-linecap="round" stroke-linejoin="round"/>
</svg>
