<svg viewBox="0 0 25.8125 18.8427" xmlns="http://www.w3.org/2000/svg">
  <path d="M25.55 10.8114C25.4811 10.8631 25.4026 10.9008 25.3191 10.9221C25.2356 10.9435 25.1488 10.9483 25.0634 10.9361C24.9781 10.9239 24.8961 10.895 24.8219 10.8511C24.7477 10.8072 24.683 10.7491 24.6312 10.6802C24.0836 9.94397 23.3707 9.34666 22.5501 8.93631C21.7294 8.52597 20.8238 8.31407 19.9063 8.31767C19.7322 8.31767 19.5653 8.24853 19.4422 8.12546C19.3191 8.00239 19.25 7.83547 19.25 7.66142C19.25 7.48737 19.3191 7.32045 19.4422 7.19738C19.5653 7.07431 19.7322 7.00517 19.9063 7.00517C20.4381 7.00506 20.9593 6.8558 21.4105 6.57434C21.8618 6.29289 22.2251 5.89052 22.4592 5.41295C22.6932 4.93537 22.7887 4.40173 22.7347 3.87263C22.6807 3.34353 22.4794 2.84017 22.1536 2.41974C21.8279 1.99931 21.3908 1.67866 20.8919 1.49419C20.3931 1.30973 19.8525 1.26885 19.3316 1.3762C18.8107 1.48356 18.3304 1.73483 17.9451 2.1015C17.5599 2.46816 17.2852 2.93552 17.1522 3.45048C17.1087 3.61902 17 3.76337 16.8501 3.85177C16.7001 3.94018 16.5212 3.9654 16.3527 3.92189C16.1841 3.87838 16.0398 3.7697 15.9514 3.61976C15.863 3.46981 15.8377 3.29089 15.8812 3.12236C16.0462 2.4808 16.3621 1.88796 16.8027 1.39326C17.2432 0.898552 17.7956 0.516314 18.4138 0.278402C19.0321 0.0404907 19.6982 -0.0462029 20.3568 0.025547C21.0153 0.097297 21.6471 0.325412 22.1996 0.690879C22.7521 1.05635 23.2092 1.54858 23.5329 2.12655C23.8566 2.70452 24.0374 3.35148 24.0603 4.01351C24.0833 4.67554 23.9476 5.33346 23.6647 5.93243C23.3818 6.53141 22.9598 7.05408 22.4339 7.45689C23.728 7.9398 24.8554 8.78548 25.6813 9.89267C25.733 9.96161 25.7706 10.0401 25.792 10.1236C25.8134 10.207 25.8181 10.2939 25.8059 10.3792C25.7937 10.4645 25.7648 10.5466 25.7209 10.6208C25.677 10.6949 25.6189 10.7597 25.55 10.8114ZM19.5989 17.8333C19.6421 17.9079 19.6701 17.9903 19.6815 18.0758C19.6928 18.1612 19.6872 18.2481 19.665 18.3314C19.6427 18.4146 19.6043 18.4927 19.5518 18.5612C19.4994 18.6296 19.434 18.687 19.3594 18.7302C19.2599 18.7885 19.1466 18.8191 19.0313 18.8188C18.916 18.8188 18.8027 18.7885 18.7029 18.7309C18.603 18.6733 18.5201 18.5905 18.4625 18.4906C17.8921 17.5242 17.0794 16.7232 16.1049 16.1667C15.1303 15.6102 14.0274 15.3176 12.9052 15.3176C11.7829 15.3176 10.68 15.6102 9.70545 16.1667C8.73086 16.7232 7.91824 17.5242 7.34781 18.4906C7.30679 18.5691 7.25032 18.6384 7.18181 18.6944C7.1133 18.7505 7.03417 18.7921 6.94916 18.8167C6.86416 18.8414 6.77505 18.8486 6.68719 18.8379C6.59933 18.8272 6.51453 18.7989 6.4379 18.7546C6.36128 18.7103 6.2944 18.651 6.2413 18.5802C6.1882 18.5094 6.14997 18.4285 6.12891 18.3426C6.10786 18.2566 6.10441 18.1673 6.11877 18.0799C6.13314 17.9926 6.16502 17.9091 6.2125 17.8344C7.10635 16.2986 8.50589 15.121 10.1719 14.5028C9.26182 13.9119 8.56718 13.0427 8.19156 12.0247C7.81594 11.0068 7.77947 9.89466 8.08759 8.85428C8.39572 7.8139 9.03192 6.90101 9.90131 6.25178C10.7707 5.60255 11.8267 5.25177 12.9117 5.25177C13.9968 5.25177 15.0527 5.60255 15.9221 6.25178C16.7915 6.90101 17.4277 7.8139 17.7358 8.85428C18.044 9.89466 18.0075 11.0068 17.6319 12.0247C17.2563 13.0427 16.5616 13.9119 15.6516 14.5028C17.3129 15.1231 18.7079 16.3001 19.5989 17.8333ZM12.9063 14.0052C13.6417 14.0052 14.3607 13.7871 14.9723 13.3784C15.5838 12.9698 16.0605 12.389 16.3419 11.7095C16.6234 11.03 16.697 10.2823 16.5535 9.56093C16.4101 8.83956 16.0559 8.17694 15.5358 7.65687C15.0157 7.13679 14.3531 6.78261 13.6317 6.63913C12.9104 6.49564 12.1627 6.56928 11.4831 6.85074C10.8036 7.13221 10.2228 7.60885 9.81422 8.22039C9.4056 8.83194 9.1875 9.55092 9.1875 10.2864C9.1875 11.2727 9.5793 12.2186 10.2767 12.916C10.9741 13.6134 11.92 14.0052 12.9063 14.0052ZM6.5625 7.66142C6.5625 7.48737 6.49336 7.32045 6.37029 7.19738C6.24722 7.07431 6.0803 7.00517 5.90625 7.00517C5.37446 7.005 4.85337 6.85572 4.40216 6.57429C3.95094 6.29285 3.58768 5.89053 3.35363 5.41301C3.11958 4.9355 3.02411 4.40192 3.07807 3.87287C3.13203 3.34383 3.33326 2.84051 3.65889 2.42008C3.98453 1.99965 4.42153 1.67895 4.92027 1.4944C5.41902 1.30985 5.95951 1.26885 6.48039 1.37605C7.00126 1.48324 7.48164 1.73435 7.86698 2.10084C8.25231 2.46734 8.52716 2.93454 8.66031 3.44939C8.68186 3.53284 8.71963 3.61123 8.77147 3.68008C8.82331 3.74894 8.8882 3.80691 8.96245 3.85068C9.03669 3.89446 9.11883 3.92318 9.20417 3.93521C9.28952 3.94724 9.37639 3.94234 9.45984 3.9208C9.54329 3.89925 9.62169 3.86148 9.69054 3.80964C9.75939 3.7578 9.81736 3.6929 9.86114 3.61866C9.90491 3.54442 9.93363 3.46228 9.94566 3.37694C9.95769 3.29159 9.9528 3.20472 9.93125 3.12126C9.76629 2.4797 9.45038 1.88687 9.00983 1.39216C8.56929 0.897458 8.01688 0.515221 7.39865 0.277309C6.78042 0.0393971 6.11428 -0.0472969 5.45575 0.024453C4.79722 0.096203 4.16538 0.324318 3.61289 0.689785C3.0604 1.05525 2.60327 1.54748 2.2796 2.12545C1.95593 2.70342 1.77509 3.35038 1.75217 4.01241C1.72924 4.67444 1.86489 5.33237 2.14781 5.93134C2.43072 6.53031 2.85271 7.05299 3.37859 7.4558C2.08438 7.939 0.956911 8.78508 0.13125 9.89267C0.079542 9.96161 0.0419199 10.0401 0.0205317 10.1236C-0.000856581 10.207 -0.00559202 10.2939 0.00659567 10.3792C0.0187834 10.4645 0.0476556 10.5466 0.0915637 10.6208C0.135472 10.6949 0.193556 10.7597 0.2625 10.8114C0.331444 10.8631 0.409898 10.9008 0.493381 10.9221C0.576865 10.9435 0.663744 10.9483 0.749058 10.9361C0.834372 10.9239 0.91645 10.895 0.990605 10.8511C1.06476 10.8072 1.12954 10.7491 1.18125 10.6802C1.7289 9.94397 2.44176 9.34666 3.26245 8.93631C4.08313 8.52597 4.9887 8.31407 5.90625 8.31767C6.0803 8.31767 6.24722 8.24853 6.37029 8.12546C6.49336 8.00239 6.5625 7.83547 6.5625 7.66142Z"/>
</svg>
