<svg viewBox="0 0 21 21.8742" xmlns="http://www.w3.org/2000/svg">
  <path d="M21 10.4992V20.9992C21 21.2313 20.9078 21.4538 20.7437 21.6179C20.5796 21.782 20.3571 21.8742 20.125 21.8742H14C13.7679 21.8742 13.5454 21.782 13.3813 21.6179C13.2172 21.4538 13.125 21.2313 13.125 20.9992V15.3117C13.125 15.1957 13.0789 15.0844 12.9969 15.0023C12.9148 14.9203 12.8035 14.8742 12.6875 14.8742H8.3125C8.19647 14.8742 8.08519 14.9203 8.00314 15.0023C7.92109 15.0844 7.875 15.1957 7.875 15.3117V20.9992C7.875 21.2313 7.78281 21.4538 7.61872 21.6179C7.45462 21.782 7.23206 21.8742 7 21.8742H0.875C0.642936 21.8742 0.420376 21.782 0.256282 21.6179C0.0921874 21.4538 0 21.2313 0 20.9992V10.4992C0.000215129 10.0351 0.184731 9.59018 0.512969 9.26216L9.26297 0.512158C9.59112 0.184217 10.0361 0 10.5 0C10.9639 0 11.4089 0.184217 11.737 0.512158L20.487 9.26216C20.8153 9.59018 20.9998 10.0351 21 10.4992Z"/>
</svg>
