<svg viewBox="0 0 22.3125 22.3105" xmlns="http://www.w3.org/2000/svg">
  <path d="M12.25 11.1519C12.25 11.3683 12.1859 11.5797 12.0657 11.7596C11.9455 11.9395 11.7747 12.0796 11.5748 12.1624C11.375 12.2452 11.155 12.2669 10.9429 12.2247C10.7307 12.1825 10.5358 12.0783 10.3829 11.9253C10.2299 11.7724 10.1257 11.5775 10.0835 11.3653C10.0413 11.1531 10.063 10.9332 10.1458 10.7334C10.2285 10.5335 10.3687 10.3627 10.5486 10.2425C10.7285 10.1223 10.9399 10.0582 11.1563 10.0582C11.4463 10.0582 11.7245 10.1734 11.9296 10.3785C12.1348 10.5837 12.25 10.8619 12.25 11.1519ZM6.34375 10.0582C6.12743 10.0582 5.91596 10.1223 5.7361 10.2425C5.55623 10.3627 5.41604 10.5335 5.33326 10.7334C5.25047 10.9332 5.22881 11.1531 5.27102 11.3653C5.31322 11.5775 5.41739 11.7724 5.57035 11.9253C5.72332 12.0783 5.9182 12.1825 6.13037 12.2247C6.34254 12.2669 6.56245 12.2452 6.76231 12.1624C6.96217 12.0796 7.13299 11.9395 7.25317 11.7596C7.37335 11.5797 7.4375 11.3683 7.4375 11.1519C7.4375 10.8619 7.32227 10.5837 7.11715 10.3785C6.91203 10.1734 6.63383 10.0582 6.34375 10.0582ZM15.9688 10.0582C15.7524 10.0582 15.541 10.1223 15.3611 10.2425C15.1812 10.3627 15.041 10.5335 14.9583 10.7334C14.8755 10.9332 14.8538 11.1531 14.896 11.3653C14.9382 11.5775 15.0424 11.7724 15.1954 11.9253C15.3483 12.0783 15.5432 12.1825 15.7554 12.2247C15.9675 12.2669 16.1875 12.2452 16.3873 12.1624C16.5872 12.0796 16.758 11.9395 16.8782 11.7596C16.9984 11.5797 17.0625 11.3683 17.0625 11.1519C17.0625 10.8619 16.9473 10.5837 16.7421 10.3785C16.537 10.1734 16.2588 10.0582 15.9688 10.0582ZM22.3125 11.1519C22.3129 13.0859 21.8105 14.9868 20.8547 16.6681C19.8989 18.3493 18.5224 19.7532 16.8603 20.7421C15.1982 21.7309 13.3076 22.2707 11.374 22.3084C9.44041 22.3462 7.53019 21.8806 5.83078 20.9574L2.01688 22.2283C1.74707 22.3183 1.45755 22.3314 1.18074 22.2661C0.903938 22.2007 0.650797 22.0596 0.44969 21.8585C0.248583 21.6574 0.107459 21.4042 0.0421348 21.1274C-0.0231893 20.8506 -0.0101318 20.5611 0.0798438 20.2913L1.35078 16.4774C0.540599 14.9845 0.0820252 13.3262 0.0100271 11.6291C-0.061971 9.93203 0.254508 8.24091 0.935332 6.6847C1.61616 5.1285 2.64335 3.7483 3.93858 2.64936C5.23381 1.55042 6.76288 0.761756 8.4092 0.343498C10.0555 -0.07476 11.7756 -0.111563 13.4383 0.235895C15.101 0.583352 16.6624 1.3059 18.0035 2.34843C19.3445 3.39096 20.4298 4.72596 21.1766 6.25162C21.9233 7.77728 22.3118 9.45332 22.3125 11.1519ZM21 11.1519C20.9996 9.64192 20.6519 8.15223 19.9837 6.79811C19.3154 5.444 18.3446 4.26177 17.1464 3.3429C15.9481 2.42402 14.5545 1.79313 13.0734 1.49903C11.5923 1.20494 10.0634 1.25553 8.60502 1.64688C7.1466 2.03824 5.79776 2.75987 4.66287 3.75594C3.52797 4.75202 2.63745 5.99584 2.06019 7.39116C1.48293 8.78648 1.23442 10.2959 1.33388 11.8026C1.43333 13.3094 1.87809 14.773 2.63375 16.0804C2.68043 16.1609 2.70944 16.2504 2.71887 16.343C2.7283 16.4356 2.71792 16.5291 2.68844 16.6174L1.32562 20.7058C1.31277 20.7444 1.31091 20.7857 1.32024 20.8253C1.32957 20.8648 1.34973 20.901 1.37846 20.9297C1.40719 20.9585 1.44335 20.9786 1.4829 20.9879C1.52244 20.9973 1.5638 20.9954 1.60234 20.9826L5.6875 19.6197C5.75458 19.5977 5.8247 19.5863 5.89531 19.5858C6.01051 19.5865 6.12356 19.617 6.22344 19.6744C7.71998 20.541 9.41841 20.9981 11.1477 20.9996C12.8771 21.0011 14.5763 20.547 16.0743 19.6829C17.5724 18.8189 18.8164 17.5755 19.6811 16.0779C20.5458 14.5803 21.0007 12.8813 21 11.1519Z"/>
</svg>
