<svg viewBox="0 0 22.3125 22.3125" xmlns="http://www.w3.org/2000/svg">
  <path d="M11.1563 0C8.94976 0 6.79281 0.654302 4.95817 1.88017C3.12354 3.10603 1.69361 4.8484 0.849224 6.88694C0.00483365 8.92548 -0.216097 11.1686 0.214369 13.3327C0.644836 15.4968 1.70737 17.4847 3.26759 19.0449C4.82782 20.6051 6.81568 21.6677 8.97978 22.0981C11.1439 22.5286 13.387 22.3077 15.4256 21.4633C17.4641 20.6189 19.2065 19.189 20.4323 17.3543C21.6582 15.5197 22.3125 13.3627 22.3125 11.1562C22.309 8.19849 21.1325 5.36288 19.0411 3.27143C16.9496 1.17998 14.114 0.00347359 11.1563 0ZM4.97001 18.8125C5.61181 17.7453 6.51878 16.8623 7.60278 16.2492C8.68677 15.6362 9.91093 15.3141 11.1563 15.3141C12.4016 15.3141 13.6257 15.6362 14.7097 16.2492C15.7937 16.8623 16.7007 17.7453 17.3425 18.8125C15.5929 20.2313 13.4088 21.0055 11.1563 21.0055C8.90371 21.0055 6.71961 20.2313 4.97001 18.8125ZM7.43751 10.2812C7.43751 9.54575 7.65561 8.82677 8.06423 8.21522C8.47285 7.60368 9.05364 7.12704 9.73315 6.84557C10.4127 6.56411 11.1604 6.49047 11.8817 6.63395C12.6031 6.77744 13.2657 7.13162 13.7858 7.6517C14.3059 8.17177 14.6601 8.83439 14.8035 9.55576C14.947 10.2771 14.8734 11.0248 14.5919 11.7044C14.3105 12.3839 13.8338 12.9647 13.2223 13.3733C12.6107 13.7819 11.8918 14 11.1563 14C10.17 14 9.2241 13.6082 8.5267 12.9108C7.8293 12.2134 7.43751 11.2675 7.43751 10.2812ZM18.3214 17.8981C17.2903 16.2948 15.7491 15.0857 13.9464 14.4659C14.8453 13.8672 15.5277 12.9952 15.8926 11.9787C16.2576 10.9622 16.2858 9.85528 15.973 8.82155C15.6603 7.78781 15.0232 6.88215 14.1559 6.23847C13.2887 5.59479 12.2374 5.24725 11.1573 5.24725C10.0773 5.24725 9.02599 5.59479 8.15875 6.23847C7.29151 6.88215 6.65442 7.78781 6.34167 8.82155C6.02892 9.85528 6.05711 10.9622 6.42208 11.9787C6.78704 12.9952 7.46941 13.8672 8.36829 14.4659C6.56564 15.0857 5.0244 16.2948 3.99329 17.8981C2.67513 16.4993 1.79531 14.7452 1.46239 12.8522C1.12947 10.9592 1.35801 9.0102 2.11981 7.24558C2.88161 5.48096 4.14334 3.97796 5.74933 2.92202C7.35532 1.86608 9.23531 1.3034 11.1573 1.3034C13.0794 1.3034 14.9594 1.86608 16.5654 2.92202C18.1714 3.97796 19.4331 5.48096 20.1949 7.24558C20.9567 9.0102 21.1852 10.9592 20.8523 12.8522C20.5194 14.7452 19.6396 16.4993 18.3214 17.8981Z"/>
</svg>
